<svg preserveAspectRatio="none" width="100%" height="100%" overflow="visible" style="display: block;" viewBox="0 0 599 394" fill="none" xmlns="http://www.w3.org/2000/svg">
<g id="Group">
<path id="Vector" d="M439.789 20.0466C432.885 20.9106 425.982 22.1203 418.56 23.8485C405.098 26.9591 391.291 31.4523 377.311 37.328C370.579 40.0931 364.194 43.2037 358.153 46.4872C351.94 49.7707 345.554 53.3998 338.822 57.893C327.259 65.324 315.695 74.1376 303.614 84.6793C298.263 89.3453 292.913 94.1841 287.217 99.887C282.557 104.38 277.725 109.392 271.339 116.132C267.542 120.106 263.917 124.081 260.293 128.056C254.597 134.277 248.902 140.498 242.861 146.72C231.815 158.126 222.15 167.112 212.312 174.716L212.14 174.889L211.967 175.061C195.398 187.85 180.728 196.663 166.058 203.057H166.23C161.225 205.131 156.22 206.859 151.215 208.415C146.037 209.97 140.514 211.007 134.818 211.871C130.158 212.389 125.671 212.735 121.011 212.735H120.666C116.351 212.735 111.864 212.389 107.031 211.871C105.132 211.698 103.407 211.353 101.508 211.007C104.097 207.205 106.513 203.403 108.757 199.601C111.001 195.454 113.072 190.96 114.798 185.43C118.077 175.58 119.803 165.384 119.63 155.361C119.63 150.867 119.285 146.201 118.595 141.708C118.249 139.807 117.904 137.733 117.559 135.832C116.351 128.92 114.97 123.39 113.244 118.378C112.209 115.095 111.001 112.675 109.792 110.429C108.757 108.701 107.204 106.281 104.96 104.726C103.924 104.035 102.889 103.516 101.681 103.343C101.335 103.17 100.818 103.17 100.3 103.17C99.6095 103.17 98.9191 103.343 98.2288 103.516C97.3658 103.689 96.5028 104.207 95.4673 105.071C94.4317 105.936 93.5688 106.972 92.7058 107.836C90.6347 110.256 88.9088 113.194 87.7006 115.613C86.3199 118.205 84.7666 121.143 83.2132 124.772C82.1777 127.192 81.1421 129.611 79.7614 133.067L79.5888 133.759C78.8984 135.487 78.0355 137.388 77.3451 139.116C73.8932 148.275 71.9947 157.434 71.6495 166.594C71.3044 176.271 73.0303 185.43 76.4821 193.898C72.3399 189.405 68.0251 184.912 63.1925 180.419C59.7407 177.135 56.1162 174.025 52.4918 170.741C48.177 166.939 44.8977 164.347 41.7911 161.928C37.6489 158.817 33.6792 156.225 29.7096 154.151C25.3948 151.904 21.08 150.349 16.9378 149.658C15.2119 149.312 13.4859 149.139 11.5874 149.139C11.2422 149.139 10.897 149.139 10.5519 149.139C8.82593 149.139 7.2726 149.485 5.71927 150.003C3.30298 150.867 1.40446 152.768 0.541502 155.015C-0.148867 157.089 -0.148867 159.508 0.36891 162.792C0.886687 165.902 1.92224 168.84 2.9578 171.605C3.30298 172.469 3.64816 173.506 3.99335 174.37L4.51113 175.926C4.85631 176.617 5.0289 177.481 5.37409 178.172C5.71927 179.036 6.06446 179.9 6.23705 180.764C7.61779 184.566 9.34371 188.368 11.2422 191.824C13.1407 195.281 15.3844 198.391 17.6281 201.329C19.8718 204.094 22.4607 206.687 25.2222 209.106C30.2274 213.426 36.2681 217.055 43.1718 219.993C49.3851 222.586 56.2888 224.486 64.2281 226.042C71.1318 227.252 78.3806 227.943 87.1829 228.461C87.528 228.461 88.0458 228.461 88.391 228.461H88.5636C96.848 242.286 104.615 254.383 112.381 265.271C121.356 277.713 131.021 289.465 140.859 300.007C150.006 309.857 160.362 319.362 171.235 328.348C179.52 335.088 188.149 341.482 197.124 347.358C199.195 348.222 201.266 348.913 203.338 349.777C211.277 352.542 219.216 354.962 227.328 356.863C235.44 358.764 243.552 359.973 251.836 360.837C251.663 360.837 251.663 360.837 251.491 360.837C258.74 361.529 266.161 361.701 273.583 361.356C280.486 361.01 287.563 360.319 294.294 359.109C300.507 358.072 306.548 356.517 312.416 354.616C318.284 352.715 324.152 350.468 329.675 347.703C335.198 344.938 340.721 342.001 345.899 338.544C351.249 335.088 356.254 331.113 361.087 326.966C367.3 321.608 372.996 315.906 378.519 309.857C386.285 301.389 393.362 292.576 400.438 283.589C407.514 274.603 414.418 265.616 421.839 256.976C429.088 248.335 436.855 239.867 445.312 232.263C449.454 228.634 453.596 225.005 458.084 221.721C462.571 218.438 467.404 215.327 472.236 212.389C491.739 200.984 513.313 193.38 535.578 189.924C544.207 188.541 553.01 187.85 561.639 187.85C564.228 187.85 566.644 187.85 569.233 188.023C575.619 188.368 582.005 188.714 588.391 189.405C591.67 189.751 594.777 190.269 598.056 190.788C597.884 184.048 597.193 177.135 595.812 169.359C594.604 162.273 592.878 155.015 590.462 147.238C586.492 134.104 580.624 120.452 572.858 105.417C569.751 99.3686 566.127 92.9744 562.33 86.4074C559.05 81.0502 555.598 75.6929 552.147 70.6813C544.725 59.9668 536.958 51.326 528.674 44.0678C524.359 40.2659 519.872 36.8096 514.867 33.6989C510.207 30.7611 504.856 28.1688 499.161 25.7494C488.115 21.2563 475.17 19.0097 460.845 18.664C459.982 18.664 459.119 18.664 458.256 18.664C452.733 19.0097 446.52 19.3553 439.789 20.0466Z" fill="var(--fill-0, #5DD2CE)"/>
<path id="Vector_2" d="M204.2 349.95C204.028 349.95 204.028 349.95 204.2 349.95C204.028 349.95 204.028 349.95 204.2 349.95Z" fill="var(--fill-0, #5DD2CE)"/>
<path id="Vector_3" d="M558.705 180.592C556.979 180.592 555.081 180.592 553.01 180.764C550.421 180.937 547.832 181.11 545.243 181.283C537.304 182.147 529.537 183.529 521.77 185.603C517.628 186.64 513.831 187.85 510.207 189.059C506.41 190.269 502.613 191.652 498.816 193.207C489.323 196.836 480.176 201.157 471.373 206.168C466.886 208.76 462.744 211.18 458.947 213.599C455.15 216.019 451.525 218.611 448.074 221.03C444.967 223.45 442.205 225.523 439.616 227.77C436.51 230.362 433.748 233.127 431.159 235.892C428.398 238.657 425.809 241.595 423.393 244.533C420.804 247.471 418.388 250.409 415.971 253.519C413.555 256.457 411.311 259.395 409.068 262.679L405.443 267.517L403.89 269.591C401.991 272.183 400.093 274.776 398.022 277.368C394.915 281.515 391.118 286.527 387.148 291.366C383.179 296.032 379.382 300.525 375.412 304.673C371.097 309.166 366.955 313.141 362.813 316.942C358.326 321.09 353.838 324.719 349.351 328.003C344.518 331.632 340.031 334.742 335.543 337.507C330.366 340.618 325.188 343.383 320.183 345.803C314.832 348.222 309.482 350.469 304.477 352.024C301.37 353.061 298.436 353.925 295.674 354.616C292.74 355.307 289.806 355.999 287.045 356.517C280.486 357.727 274.446 358.591 268.75 359.109C264.608 359.455 260.466 359.628 256.496 359.628C254.08 359.628 252.181 359.628 250.455 359.455C244.415 359.109 238.719 358.591 233.369 357.554C227.328 356.517 221.632 355.135 215.937 353.406C210.241 351.678 204.718 349.604 199.368 347.185C196.089 345.803 192.809 344.074 189.358 342.519C193.672 345.63 198.505 348.913 203.683 352.197C225.947 366.022 249.765 376.736 274.446 383.822C297.055 390.389 320.528 393.672 344 393.672C346.071 393.672 347.97 393.672 350.041 393.672C375.757 392.981 401.646 388.142 426.672 379.156C438.754 374.835 451.008 369.305 463.434 362.566C473.79 356.863 484.145 350.814 494.156 344.247C504.684 337.335 515.039 329.904 524.704 321.954C535.06 313.659 544.553 304.845 553.01 295.686C561.984 286.181 569.751 276.331 576.31 266.135C583.041 255.593 588.391 244.706 592.188 233.473C594.259 227.597 595.813 221.203 596.848 214.463C598.056 207.378 598.574 199.947 598.401 192.17C598.401 191.133 598.401 190.096 598.229 189.059C597.711 188.887 597.366 188.714 597.021 188.541C593.396 186.986 589.944 185.776 586.665 184.912C584.767 184.393 582.868 183.875 581.315 183.529C579.416 183.184 577.69 182.838 575.792 182.492C570.614 181.801 565.609 181.283 560.776 181.283C560.086 180.592 559.396 180.592 558.705 180.592Z" fill="var(--fill-0, #EBFAF8)"/>
<path id="Vector_4" d="M556.461 180.764C554.908 191.479 552.492 202.194 549.212 212.39C541.101 237.966 528.674 262.16 513.486 284.281C499.333 304.673 482.592 323.337 463.779 339.581C444.967 355.826 424.083 369.824 401.301 379.847C390.082 384.859 378.519 388.834 366.61 391.599C365.574 391.771 364.539 392.117 363.503 392.29C384.904 390.562 405.961 385.896 426.672 378.465C433.576 376.045 440.652 373.107 447.728 369.824C462.571 361.874 476.551 352.37 489.668 341.482L489.323 341.655C493.292 338.372 497.09 334.915 500.887 331.459C516.592 316.77 530.745 300.352 542.999 282.725C542.999 282.898 542.826 282.898 542.826 283.071C545.07 279.96 547.141 276.677 549.212 273.566C560.431 256.112 569.923 237.621 577.172 218.092C579.071 212.908 580.624 207.724 581.832 202.366C583.04 197.182 583.903 191.825 584.421 186.467C584.421 185.603 584.594 184.912 584.594 184.048C583.386 183.702 582.178 183.53 581.142 183.184C579.243 182.838 577.518 182.493 575.619 182.147C570.614 181.456 565.609 180.937 560.431 180.937C559.741 180.937 559.05 180.937 558.36 180.937C558.015 180.764 557.152 180.764 556.461 180.764Z" fill="var(--fill-0, #A8EEE4)"/>
<path id="Vector_5" d="M585.802 196.836C584.767 202.712 583.214 208.587 581.315 214.29C579.589 219.302 577.691 224.313 575.619 229.325C573.721 233.991 571.477 238.657 569.234 243.323C559.914 262.333 548.695 280.478 535.578 297.241C522.461 314.177 507.445 329.903 490.877 343.728C487.08 346.839 483.11 349.95 479.14 352.888C484.146 349.95 489.151 346.839 493.983 343.556C504.511 336.643 514.867 329.212 524.532 321.263C534.888 312.967 544.38 304.154 552.837 294.995C561.64 285.49 569.579 275.639 576.137 265.616C582.868 255.075 588.219 244.187 592.016 232.954C594.087 227.079 595.64 220.684 596.676 213.945C597.884 206.859 598.402 199.428 598.229 191.651C598.229 190.615 598.229 189.578 598.056 188.541C597.711 188.368 597.194 188.195 596.848 188.022H597.021C593.742 186.64 590.462 185.43 587.183 184.393C587.011 188.714 586.493 192.688 585.802 196.836Z" fill="var(--fill-0, #A8EEE4)"/>
<path id="Vector_6" d="M553.01 180.764C550.421 180.937 547.832 181.11 545.243 181.283C537.304 182.147 529.537 183.529 521.771 185.603C517.801 186.64 514.004 187.677 510.207 189.059C509.171 189.405 508.136 189.751 507.1 190.096C506.41 194.935 505.547 199.774 504.511 204.613C502.095 215.5 498.988 226.387 495.019 236.929C490.014 250.063 483.8 262.851 476.379 274.948C470.166 285.317 463.089 295.168 455.323 304.5C439.962 322.991 422.012 339.236 401.992 352.369C382.143 365.331 360.224 375.181 337.269 380.884C325.706 383.822 313.797 385.55 302.061 386.241C297.055 386.587 292.05 386.587 287.218 386.414C304.304 390.389 321.736 392.635 339.341 392.981C344.691 392.635 350.041 392.117 355.392 391.253C371.615 388.488 387.494 383.476 402.509 376.564C402.509 376.564 402.509 376.564 402.682 376.564C402.682 376.564 402.682 376.564 402.509 376.564C422.703 367.404 441.343 355.135 458.429 340.964H458.257C459.292 340.1 460.155 339.236 461.191 338.371C480.003 322.127 496.745 303.636 511.07 283.244C511.07 283.244 511.07 283.244 511.07 283.416C524.36 264.407 535.405 244.015 543.345 222.24C548.35 208.76 551.974 194.762 554.045 180.592C553.528 180.764 553.355 180.764 553.01 180.764ZM458.084 341.136C458.084 341.136 457.911 341.136 458.084 341.136C457.911 341.136 458.084 341.136 458.084 341.136ZM402.682 376.391C402.682 376.564 402.509 376.564 402.682 376.391C402.509 376.564 402.682 376.564 402.682 376.391Z" fill="var(--fill-0, #A8EEE4)"/>
<path id="Vector_7" d="M498.816 193.034C489.496 196.663 480.176 200.984 471.374 205.995C469.13 207.205 466.714 208.588 464.47 209.97C464.47 210.143 464.47 210.143 464.47 210.316C461.018 223.623 456.013 236.411 449.972 248.681C443.759 261.123 436.51 273.048 428.398 284.453C420.286 295.686 411.484 306.228 401.646 315.906C396.814 320.572 391.981 325.238 386.803 329.558C381.626 333.878 376.275 337.853 370.752 341.655C359.879 348.913 348.143 354.962 335.889 359.628C323.807 364.294 311.208 367.577 298.436 369.478C285.492 371.379 272.375 371.898 259.43 370.861C252.872 370.342 246.313 369.478 239.755 368.269C236.648 367.75 233.714 367.059 230.607 366.368C244.76 373.28 259.603 378.81 274.618 383.303C290.152 384.686 305.858 383.995 321.391 381.575C338.823 378.637 355.909 373.453 372.133 366.022C371.96 366.022 371.96 366.195 371.788 366.195C389.91 357.9 406.997 347.012 422.357 334.224C422.357 334.224 422.357 334.224 422.185 334.397C438.754 320.572 453.251 304.5 465.678 286.873C465.678 286.873 465.678 286.873 465.678 286.7C465.678 286.7 465.678 286.527 465.851 286.527C471.201 278.75 476.206 270.628 480.694 262.333C485.526 253.174 489.841 243.669 493.465 233.991L493.638 233.646C493.638 233.646 493.638 233.646 493.638 233.819C496.917 225.005 499.506 216.019 501.577 207.032C502.785 201.848 503.821 196.491 504.511 191.133C502.44 191.652 500.542 192.343 498.816 193.034Z" fill="var(--fill-0, #A8EEE4)"/>
<path id="Vector_8" d="M493.293 233.992C493.293 233.992 493.293 233.817 493.293 233.992C493.293 233.817 493.293 233.992 493.293 233.992Z" fill="var(--fill-0, #A8EEE4)"/>
<path id="Vector_9" d="M458.774 213.426C455.15 215.845 451.525 218.265 447.901 220.857C447.901 220.857 447.901 220.857 448.073 220.857C445.139 223.104 442.378 225.35 439.616 227.597C436.682 230.189 433.748 232.781 431.159 235.719C428.398 238.484 425.809 241.422 423.393 244.36C420.804 247.298 418.388 250.236 415.971 253.346C413.555 256.284 411.311 259.395 409.068 262.505C405.443 267.344 401.819 272.183 398.194 277.022C394.57 281.688 391.118 286.354 387.321 291.02C383.524 295.513 379.727 300.006 375.585 304.327C371.615 308.474 367.473 312.622 362.985 316.597C358.671 320.571 354.183 324.2 349.523 327.657C345.036 330.94 340.376 334.224 335.543 337.161C330.538 340.099 325.533 343.037 320.183 345.457C315.177 347.876 309.827 349.95 304.477 351.678C301.543 352.715 298.609 353.579 295.674 354.27C292.74 354.961 289.979 355.653 287.045 356.171C281.004 357.381 274.963 358.245 268.75 358.763C262.709 359.282 256.669 359.455 250.455 359.109C244.76 358.763 239.064 358.245 233.369 357.208C227.5 356.171 221.632 354.789 215.937 353.06C210.241 351.332 204.718 349.259 199.368 346.839C195.916 345.284 192.637 343.728 189.358 342.173C194.018 345.457 198.85 348.74 203.683 351.678C209.033 354.961 214.383 358.072 219.906 361.01C220.079 361.01 220.252 361.01 220.424 361.01C231.815 364.466 243.552 366.713 255.46 367.923C255.288 367.923 255.288 367.923 255.115 367.923C270.131 369.305 285.319 368.959 300.162 366.54C315.35 363.948 330.193 359.455 344.345 353.06C359.016 346.321 372.823 337.68 385.25 327.311C385.25 327.311 385.25 327.311 385.077 327.484C393.362 320.571 401.128 312.967 408.205 305.018C415.454 296.896 422.185 288.428 428.571 279.614C439.962 263.37 449.454 245.915 456.358 227.251C458.256 222.24 459.81 217.228 461.191 212.044C460.328 212.389 459.637 212.908 458.774 213.426ZM344.691 352.888C344.691 352.888 344.518 352.888 344.518 353.06C344.518 352.888 344.691 352.888 344.691 352.888Z" fill="var(--fill-0, #A8EEE4)"/>
<path id="Vector_10" d="M193.673 344.938C193.327 344.593 192.81 344.42 192.464 344.074C196.089 346.667 199.886 349.086 203.855 351.678C209.206 354.962 214.729 358.245 220.079 361.01H220.252C220.424 361.01 220.424 361.01 220.597 361.01C229.399 363.602 238.547 365.676 247.867 367.059C250.455 367.404 253.044 367.75 255.633 367.923H255.461H255.633C261.156 368.441 266.852 368.787 272.547 368.787C282.04 368.787 291.36 368.096 300.68 366.54C313.106 364.466 325.188 361.183 336.924 356.517C324.843 355.999 312.761 354.789 300.852 352.888C299.644 353.234 298.436 353.579 297.228 353.925C296.883 354.098 296.365 354.098 296.02 354.27C293.086 354.962 290.152 355.653 287.39 356.171C280.832 357.381 274.791 358.245 269.095 358.764C264.781 359.109 260.638 359.282 256.841 359.282C254.598 359.282 252.699 359.282 250.801 359.109C244.76 358.764 239.064 358.245 233.714 357.208C230.09 356.517 226.638 355.826 223.186 354.962C220.77 354.443 218.526 353.752 216.282 353.061C215.074 352.715 213.866 352.369 212.658 351.851C209.378 350.814 206.272 349.604 203.165 348.222C201.957 347.703 200.921 347.358 199.713 346.839C197.987 346.148 196.261 345.284 194.535 344.42C192.982 343.729 191.429 342.865 189.875 342.173C191.084 343.037 192.464 344.074 193.673 344.938Z" fill="var(--fill-0, #91EEE2)"/>
<path id="Vector_11" d="M348.66 356.517C346.762 356.517 344.863 356.517 342.965 356.517C340.721 357.554 338.305 358.591 335.888 359.455C323.807 364.121 311.208 367.404 298.436 369.305C289.806 370.515 281.177 371.206 272.547 371.206C268.232 371.206 263.917 371.033 259.43 370.688C252.871 370.169 246.14 369.305 239.754 368.096L238.719 367.923C236.475 367.577 234.232 367.059 232.16 366.54C231.815 366.367 231.297 366.367 230.952 366.195C242.516 371.897 254.77 376.736 267.024 380.711C269.613 381.575 272.202 382.266 274.791 383.13C280.141 383.649 285.664 383.822 291.187 383.822C301.37 383.822 311.553 382.958 321.563 381.402C338.822 378.637 355.909 373.28 372.305 365.849C380.59 362.047 388.874 357.554 396.986 352.542C380.762 355.307 364.711 356.69 348.66 356.517Z" fill="var(--fill-0, #91EEE2)"/>
<path id="Vector_12" d="M444.449 340.618C437.373 342.865 430.297 345.111 423.22 346.839C416.662 348.567 409.931 350.123 403.2 351.332L401.992 352.024C381.453 365.503 359.706 375.008 337.269 380.538C325.533 383.476 313.624 385.204 302.061 385.895C298.436 386.068 294.812 386.241 291.36 386.241C290.152 386.241 288.944 386.241 287.735 386.241C287.563 386.241 287.39 386.241 287.218 386.241C304.132 390.216 321.736 392.462 339.168 392.808C344.346 392.462 349.869 391.944 355.219 391.08C370.925 388.488 386.803 383.476 402.337 376.391C421.495 367.577 440.307 355.653 458.084 340.791C458.947 340.099 459.983 339.235 461.018 338.371C463.78 335.952 466.541 333.532 469.303 330.94C461.191 334.569 452.906 337.853 444.449 340.618Z" fill="var(--fill-0, #91EEE2)"/>
<path id="Vector_13" d="M519.527 303.117C508.136 311.067 496.227 318.325 483.801 324.546C481.384 325.756 478.968 326.966 476.379 328.003C476.379 328.003 476.379 328.003 476.552 328.003C472.41 332.15 468.095 335.952 463.952 339.581C444.104 356.69 423.048 370.342 401.474 379.847C389.738 385.031 378.174 389.006 366.783 391.598L366.093 391.771C365.402 391.944 364.539 392.117 363.849 392.29C364.712 392.29 365.575 392.117 366.61 392.117C370.753 391.771 374.722 391.253 378.692 390.734H379.037C395.088 388.488 411.139 384.34 427.018 378.637C433.921 376.218 440.998 373.28 448.074 369.997C459.292 364.121 470.511 356.863 481.384 348.568C484.146 346.321 487.08 344.074 489.841 341.828L489.669 342.001C493.293 339.063 497.263 335.606 501.232 331.977C515.558 318.671 528.847 303.636 540.583 287.218C533.68 292.576 526.603 297.933 519.527 303.117Z" fill="var(--fill-0, #91EEE2)"/>
<path id="Vector_14" d="M577.863 246.261C569.578 257.148 560.604 267.517 550.766 277.022C550.075 277.713 549.385 278.404 548.695 278.923C548.695 278.923 548.695 278.923 548.695 279.096C548.695 279.096 548.695 279.096 548.867 278.923C544.725 285.144 540.41 291.193 535.923 296.896C522.461 314.35 507.445 329.903 491.221 343.383C488.115 345.975 484.836 348.567 481.729 350.814C481.039 351.332 480.348 351.851 479.658 352.369C484.318 349.604 489.15 346.666 494.328 343.21C504.856 336.297 515.212 328.866 524.877 320.917C535.233 312.622 544.725 303.808 553.182 294.649C562.157 285.144 569.924 275.294 576.482 265.27C583.213 254.729 588.564 243.841 592.361 232.608L592.706 231.744L593.051 230.708C594.259 227.078 595.295 223.104 596.158 218.956C590.462 228.634 584.421 237.793 577.863 246.261Z" fill="var(--fill-0, #91EEE2)"/>
<path id="Vector_15" d="M0.714442 155.361C0.0240724 157.434 0.0240724 159.854 0.54185 163.137C1.05963 166.248 2.09518 169.359 3.13074 171.951C3.47592 172.815 3.64851 173.506 3.9937 174.37L4.16629 174.716L4.68407 176.271C4.85666 176.79 5.02925 177.308 5.20184 177.999L5.37444 178.518C5.71962 179.382 6.06481 180.246 6.2374 181.11C7.61814 184.912 9.34406 188.714 11.4152 192.17C13.3137 195.454 15.3848 198.737 17.8011 201.675C20.0448 204.44 22.6337 207.032 25.3952 209.452C30.4003 213.772 36.4411 217.401 43.3448 220.339C49.5581 222.931 56.4618 224.832 64.401 226.387C71.3047 227.597 78.5536 228.288 87.3558 228.807C87.701 228.807 88.2188 228.807 88.564 228.807H88.7365C97.021 242.632 104.788 254.556 112.554 265.616C121.529 278.059 131.194 289.811 141.032 300.352C150.352 310.203 160.535 319.707 171.408 328.694C177.104 333.36 183.145 338.026 189.358 342.346C192.81 344.074 196.262 345.63 199.368 347.012C204.719 349.259 210.242 351.333 215.937 353.234C221.46 354.962 227.328 356.344 233.369 357.381C238.719 358.245 244.587 358.936 250.456 359.282C252.354 359.455 254.253 359.455 256.496 359.455C260.293 359.455 264.436 359.282 268.75 358.936C274.446 358.418 280.314 357.727 287.045 356.344C289.807 355.826 292.741 355.135 295.675 354.443C297.228 354.098 298.781 353.579 300.507 353.061C299.817 352.888 299.127 352.888 298.264 352.715C281.522 349.777 264.953 345.63 248.73 340.1C232.679 334.57 217.145 328.003 202.13 320.053C194.536 316.078 186.942 311.758 179.693 307.265C172.271 302.599 165.195 297.933 158.119 292.748C151.388 287.737 144.656 282.379 138.443 276.677C132.23 270.974 126.189 264.925 120.494 258.531C114.798 252.137 109.275 245.397 104.097 238.657C102.544 236.756 101.163 234.683 99.7825 232.782C98.7469 231.399 97.7114 229.844 96.6758 228.461C95.2951 226.56 93.7417 224.659 91.8432 223.104C91.3254 222.758 90.8077 222.24 90.1173 221.894C89.5995 221.549 88.9091 221.203 88.3914 221.03C86.1477 220.166 83.7314 219.475 81.3151 219.129C78.7262 218.611 76.1373 218.092 73.5484 217.574C68.5432 216.364 63.5381 215.155 58.7055 213.426C53.7003 211.698 48.6951 209.797 43.8625 207.551C39.2025 205.304 34.7151 202.885 30.4003 199.947C26.0855 197.009 22.1159 193.725 18.4915 190.096C15.2122 186.64 12.1055 182.838 9.51665 178.691C7.10036 173.506 5.02925 168.84 3.64851 163.829C2.95814 161.236 2.44037 158.644 2.09518 156.052C1.92259 155.188 1.92259 154.324 1.75 153.46C1.40481 153.978 1.05963 154.497 0.714442 155.361Z" fill="var(--fill-0, #4ABBB6)"/>
<path id="Vector_16" d="M91.8429 222.585C91.8429 222.413 91.671 222.413 91.8429 222.585C91.671 222.413 91.8429 222.413 91.8429 222.585Z" fill="var(--fill-0, #4ABBB6)"/>
<path id="Vector_17" d="M305.858 256.975C304.477 256.975 302.923 257.148 301.543 257.321C299.126 257.667 296.883 258.358 294.812 259.222C293.776 259.741 292.913 260.259 291.705 260.95C290.669 261.641 289.806 262.506 288.943 263.37C288.598 263.715 288.598 264.234 288.598 264.579C287.563 266.135 286.527 267.517 285.492 268.554C282.385 272.01 278.933 275.294 275.654 278.405L273.583 280.478C269.095 284.799 264.781 288.946 260.984 293.612C258.222 296.896 254.943 301.562 254.08 306.573C253.735 308.647 253.907 310.894 254.77 312.795C255.633 314.696 257.186 316.597 259.43 318.152C260.638 319.016 262.192 319.88 263.4 320.399C264.781 321.09 266.334 321.781 268.232 322.299C272.375 323.682 276.862 324.546 281.522 324.892C283.248 325.065 284.974 325.065 286.7 325.065C289.461 325.065 292.395 324.892 295.329 324.546C299.817 324.028 304.304 322.991 308.792 321.608C317.766 318.843 326.051 314.523 333.127 308.993C336.924 306.055 340.203 302.771 342.447 299.142C345.036 295.168 346.417 291.02 346.589 286.872C346.762 282.552 345.381 278.232 342.62 274.43C341.066 272.183 338.995 270.109 336.061 267.863C333.472 265.962 330.538 264.061 326.914 262.333C323.635 260.777 320.183 259.395 316.558 258.531C313.106 257.494 309.482 256.975 305.858 256.975Z" fill="var(--fill-0, #5DD2CE)"/>
<path id="Vector_18" d="M338.995 302.426C335.371 304.672 331.401 306.573 327.259 308.129C325.188 308.993 322.944 309.684 320.873 310.375C318.284 311.067 315.868 311.931 313.279 312.449C308.274 313.659 303.096 314.696 297.918 315.387C292.74 315.905 287.563 316.078 282.385 315.56C281.004 315.387 279.623 315.214 278.243 315.041C277.035 314.869 275.999 314.696 274.791 314.35C273.41 314.004 272.029 313.659 270.821 313.14C269.268 312.622 267.714 311.931 266.334 311.239C264.953 310.548 263.4 309.684 262.192 308.647C260.983 307.783 259.775 306.746 258.74 305.537C258.222 305.018 257.704 304.327 257.359 303.636C257.014 303.117 256.669 302.426 256.496 301.735C256.323 301.389 256.323 301.043 256.151 300.698C255.288 302.426 254.597 304.327 254.252 306.401C253.907 308.474 254.08 310.548 254.943 312.622C255.806 314.523 257.359 316.424 259.603 317.979C260.811 318.843 262.364 319.707 263.572 320.226C264.953 320.917 266.506 321.608 268.405 322.127C272.547 323.509 277.035 324.373 281.694 324.719C283.42 324.892 285.146 324.892 286.872 324.892C289.634 324.892 292.568 324.719 295.502 324.373C299.989 323.855 304.477 322.818 308.964 321.435C317.939 318.67 326.223 314.35 333.3 308.82C336.751 306.228 339.686 303.117 341.929 300.006C341.066 301.043 340.031 301.735 338.995 302.426Z" fill="var(--fill-0, #4ABBB6)"/>
<g id="Vector_19">
</g>
<path id="Vector_20" d="M286.7 266.307C285.492 267.863 284.111 269.418 282.73 270.801C281.349 272.356 279.796 273.738 278.243 275.121C275.136 278.059 271.857 280.824 268.75 283.589C265.643 286.527 262.537 289.465 259.948 292.748C258.74 294.303 257.532 296.032 256.496 297.76C255.978 298.624 255.46 299.488 255.115 300.352C254.597 301.389 254.08 302.426 253.735 303.463C253.389 304.499 253.217 305.364 253.044 306.4C252.872 307.437 253.044 308.474 253.044 309.338C253.217 310.202 253.389 311.066 253.735 311.93C254.08 312.795 254.425 313.486 254.943 314.35C257.014 317.633 260.293 319.88 263.572 321.608C267.715 323.682 272.029 324.719 276.517 325.583C279.106 326.101 281.867 326.274 284.629 326.274C287.39 326.274 289.979 326.101 292.74 325.929C295.329 325.583 297.918 325.237 300.334 324.719C302.923 324.2 305.512 323.509 307.929 322.818C312.243 321.435 316.558 319.88 320.7 317.806C324.843 315.905 328.64 313.486 332.264 310.721C336.061 307.956 339.513 304.845 342.62 301.216C342.792 301.043 342.792 300.87 342.62 300.525C342.447 300.352 342.102 300.352 341.929 300.525C339.168 303.635 336.234 306.4 332.782 308.82C327.431 312.449 321.563 315.387 315.523 317.633C315.523 317.633 315.523 317.633 315.695 317.633H315.523H315.35C315.35 317.633 315.35 317.633 315.523 317.633C312.243 318.843 308.964 319.88 305.512 320.744C301.37 321.781 297.4 322.645 293.086 323.163C290.669 323.336 288.08 323.509 285.664 323.336C283.248 323.336 280.659 322.991 278.243 322.645H278.415H278.243H278.07C278.07 322.645 278.07 322.645 278.243 322.645C275.826 322.299 273.41 321.608 270.994 320.917C269.44 320.398 267.715 319.88 266.161 319.189C264.09 318.325 262.192 317.115 260.466 315.732C259.43 314.868 258.567 314.004 257.704 312.967C257.186 312.276 256.841 311.412 256.496 310.548C256.323 309.857 256.151 309.165 255.978 308.301C255.978 307.437 255.978 306.746 255.978 305.882C256.151 304.499 256.669 303.29 257.186 301.907C258.567 298.969 260.293 296.204 262.364 293.785C266.334 289.119 270.821 285.144 275.309 280.997C277.552 278.923 279.796 276.849 281.867 274.602C283.938 272.356 286.009 270.109 287.735 267.69C288.08 267.344 287.908 266.826 287.563 266.48C287.39 266.307 287.045 266.135 286.872 266.135C287.045 265.962 286.7 266.135 286.7 266.307ZM262.882 293.785L262.709 293.958L262.882 293.785ZM257.704 301.907C257.532 301.907 257.532 302.08 257.704 301.907C257.532 302.08 257.532 301.907 257.704 301.907ZM266.334 319.016C266.506 319.016 266.679 319.189 266.679 319.189C266.679 319.189 266.506 319.189 266.334 319.016Z" fill="var(--fill-0, #119C97)"/>
<path id="Vector_21" d="M336.407 97.1218C341.067 102.652 352.458 100.924 361.778 92.9742C371.098 85.1976 374.895 74.3102 370.235 68.6073C365.575 63.0773 354.184 64.8054 344.864 72.7549C335.544 80.7044 331.747 91.5917 336.407 97.1218Z" fill="var(--fill-0, #A8EEE4)"/>
<path id="Vector_22" d="M302.06 117.687C304.822 120.452 310.862 118.896 315.35 114.23C320.01 109.564 321.39 103.689 318.629 100.924C315.868 98.1587 309.827 99.714 305.339 104.38C300.852 108.873 299.299 114.922 302.06 117.687Z" fill="var(--fill-0, #A8EEE4)"/>
<path id="Vector_23" d="M418.388 53.0543C419.078 56.5106 425.291 58.2387 432.368 57.029C439.444 55.8193 444.794 52.0174 444.277 48.5611C443.586 45.1048 437.373 43.3767 430.297 44.5864C423.22 45.7961 417.87 49.598 418.388 53.0543Z" fill="var(--fill-0, #A8EEE4)"/>
<path id="Vector_24" d="M384.905 57.3743C386.458 60.3121 390.773 60.8306 394.57 58.7568C398.367 56.683 400.266 52.7083 398.712 49.7704C397.159 46.8326 392.844 46.3141 389.047 48.3879C385.25 50.4617 383.351 54.4364 384.905 57.3743Z" fill="var(--fill-0, #A8EEE4)"/>
<path id="Vector_25" d="M266.507 162.964C268.75 165.211 273.238 164.52 276.172 161.409C279.278 158.298 279.796 153.978 277.553 151.731C275.309 149.485 270.821 150.176 267.887 153.287C264.781 156.224 264.09 160.718 266.507 162.964Z" fill="var(--fill-0, #A8EEE4)"/>
<path id="Vector_26" d="M287.39 134.968C288.426 136.005 290.497 135.659 291.878 134.277C293.258 132.894 293.603 130.821 292.568 129.784C291.532 128.747 289.461 129.092 288.081 130.475C286.7 131.857 286.355 133.931 287.39 134.968Z" fill="var(--fill-0, #A8EEE4)"/>
<path id="Vector_27" d="M332.609 122.18C333.645 123.217 335.716 122.871 337.097 121.489C338.477 120.106 338.823 118.032 337.787 116.995C336.752 115.959 334.68 116.304 333.3 117.687C331.746 119.242 331.574 121.143 332.609 122.18Z" fill="var(--fill-0, #A8EEE4)"/>
<path id="Vector_28" d="M387.148 75.1744C387.666 76.3841 389.392 76.7297 390.945 75.8656C392.499 75.1744 393.362 73.619 392.844 72.4093C392.326 71.1996 390.6 70.854 389.047 71.7181C387.493 72.5821 386.631 73.9647 387.148 75.1744Z" fill="var(--fill-0, #A8EEE4)"/>
<path id="Vector_29" d="M410.967 205.131C415.454 205.131 419.079 198.91 419.251 190.96C419.424 183.011 415.799 176.617 411.312 176.617C406.824 176.617 403.2 182.838 403.027 190.787C402.855 198.564 406.479 204.958 410.967 205.131Z" fill="var(--fill-0, #197967)"/>
<path id="Vector_30" d="M571.822 157.78C575.619 155.533 575.619 148.102 571.477 141.362C567.507 134.623 561.121 130.994 557.152 133.24C553.355 135.487 553.355 142.918 557.497 149.658C561.639 156.397 568.025 160.026 571.822 157.78Z" fill="var(--fill-0, #197967)"/>
<path id="Vector_31" d="M415.281 187.504C413.9 187.85 411.829 186.294 410.966 184.048C409.931 181.801 410.276 179.554 411.829 179.209C413.21 178.863 415.281 180.418 416.144 182.665C417.007 184.912 416.662 187.158 415.281 187.504Z" fill="var(--fill-0, #FEFEFE)"/>
<path id="Vector_32" d="M415.626 191.306C414.763 191.306 413.9 190.788 413.9 189.923C413.9 189.059 414.418 188.368 415.281 188.368C416.144 188.368 417.007 188.887 417.007 189.751C417.18 190.442 416.489 191.133 415.626 191.306Z" fill="var(--fill-0, #FEFEFE)"/>
<path id="Vector_33" d="M567.162 141.363C566.127 142.399 563.538 141.881 561.639 140.153C559.741 138.425 559.05 136.351 560.086 135.487C561.122 134.45 563.71 134.968 565.609 136.697C567.507 138.252 568.198 140.326 567.162 141.363Z" fill="var(--fill-0, #FEFEFE)"/>
<path id="Vector_34" d="M569.061 144.473C568.371 144.992 567.335 144.819 566.99 144.128C566.472 143.436 566.817 142.572 567.508 142.054C568.198 141.535 569.234 141.708 569.579 142.399C570.096 143.091 569.751 143.955 569.061 144.473Z" fill="var(--fill-0, #FEFEFE)"/>
<path id="Vector_35" d="M492.43 149.485C491.739 149.658 491.222 150.349 491.394 151.04C491.739 152.596 491.912 154.151 492.085 155.706V155.533C492.085 155.706 492.085 155.706 492.085 155.879C492.257 157.434 492.085 158.99 491.912 160.372C491.739 161.409 491.394 162.446 490.876 163.483C490.531 164.347 490.013 165.038 489.496 165.729C488.978 166.421 488.288 166.939 487.597 167.458C486.907 167.976 486.044 168.494 485.181 168.84C484.318 169.186 483.282 169.359 482.247 169.531C481.211 169.531 480.176 169.531 479.14 169.359C478.105 169.186 477.069 168.84 476.034 168.322C474.998 167.803 474.135 167.112 473.099 166.421C472.064 165.557 471.201 164.693 470.511 163.656C469.648 162.446 468.957 161.236 468.439 159.854C468.094 159.162 467.231 158.99 466.714 159.335C466.368 159.508 466.196 159.681 466.023 160.027C465.851 160.372 466.023 160.718 466.023 161.063C466.714 162.619 467.576 164.174 468.612 165.557C469.475 166.766 470.683 167.976 471.891 168.84C474.135 170.568 476.724 171.605 479.485 171.951C482.074 172.296 484.663 171.778 487.079 170.568C489.496 169.359 491.394 167.458 492.602 165.038C493.638 163.137 494.156 161.063 494.328 158.99C494.673 156.052 494.156 153.287 493.465 150.349C493.293 149.83 492.775 149.312 492.257 149.312C492.602 149.485 492.602 149.485 492.43 149.485ZM470.511 163.137C470.511 163.31 470.683 163.31 470.511 163.137C470.683 163.31 470.511 163.31 470.511 163.137ZM476.206 168.149C476.206 168.149 476.379 168.149 476.379 168.322C476.379 168.322 476.379 168.149 476.206 168.149Z" fill="var(--fill-0, #197967)"/>
<path id="Vector_36" d="M514.521 139.462C514.176 139.462 513.831 139.807 513.658 139.98C513.486 140.153 513.313 140.671 513.486 141.017C513.831 142.054 514.176 142.918 514.349 143.955C514.521 144.819 514.694 145.683 514.694 146.547C514.694 147.757 514.694 149.139 514.521 150.349C514.349 151.386 514.004 152.25 513.658 153.114C513.313 153.978 512.795 154.669 512.105 155.533C511.587 156.225 510.897 156.743 510.207 157.261C509.516 157.78 508.826 158.126 507.963 158.471C507.272 158.644 506.409 158.817 505.547 158.99C504.684 158.99 503.993 158.99 503.13 158.817C502.267 158.644 501.577 158.298 500.714 157.953C499.851 157.434 498.988 156.916 498.298 156.397C497.435 155.533 496.572 154.669 495.881 153.632C495.191 152.595 494.501 151.559 493.983 150.349C493.638 149.658 492.775 149.485 492.257 149.83C491.567 150.176 491.394 150.867 491.739 151.559C493.12 154.669 495.191 157.607 498.125 159.508C499.333 160.199 500.541 160.891 501.922 161.236C502.612 161.409 503.303 161.582 503.993 161.582C504.684 161.582 505.374 161.582 506.064 161.582C508.653 161.409 511.069 160.026 512.968 158.298C514.004 157.434 514.694 156.225 515.384 155.015C515.729 154.324 516.075 153.632 516.247 153.114C516.592 152.423 516.765 151.559 516.765 150.694C517.11 149.139 516.938 147.584 516.938 146.201C516.765 144.3 516.247 142.572 515.557 140.671C515.384 140.326 515.384 139.98 515.039 139.807C514.866 139.634 514.521 139.634 514.349 139.634C514.694 139.462 514.694 139.462 514.521 139.462ZM498.643 156.57L498.815 156.743C498.815 156.57 498.643 156.57 498.643 156.57ZM501.059 158.126C501.059 158.126 501.232 158.126 501.059 158.126C501.232 158.126 501.059 158.126 501.059 158.126ZM508.481 158.298H508.308C508.308 158.471 508.481 158.298 508.481 158.298Z" fill="var(--fill-0, #197967)"/>
<path id="Vector_37" d="M458.256 22.6387C456.531 22.6387 454.632 22.6387 452.734 22.8115C451.871 22.8115 451.18 22.8115 450.317 22.9843C444.967 23.3299 439.271 24.0212 433.231 25.0581C427.017 26.2678 420.631 27.6503 414.073 29.7241C401.991 33.3532 389.565 38.192 377.311 44.4134C371.443 47.3512 365.574 50.6347 360.397 53.7454C354.874 57.0288 349.351 60.8308 343.483 65.1511C339.168 68.4346 334.68 71.8909 330.366 75.6928C333.645 73.6191 336.751 71.5453 339.686 69.8171C346.244 65.8424 353.148 62.3861 360.224 59.1026C363.848 57.3745 367.646 55.8191 371.27 54.4366C373.341 53.5725 375.412 52.8813 377.483 52.0172C379.382 51.3259 381.453 50.4619 383.351 49.7706C393.017 46.3143 400.783 43.7221 408.032 41.8211C417.352 39.2289 425.809 37.5008 433.921 36.4639C437.2 36.1182 440.134 35.7726 442.896 35.5998C445.657 35.427 448.246 35.427 450.835 35.427C453.597 35.427 456.185 35.5998 458.947 35.7726C466.368 36.2911 473.617 37.5008 480.521 39.4017C487.77 41.4755 494.673 44.0677 501.059 47.3512C507.618 50.8075 513.831 54.7822 519.354 59.2754C521.943 61.3492 524.877 63.9414 527.811 66.7065C530.745 69.4715 533.679 72.4094 536.268 75.3472C541.619 81.2229 546.796 87.6171 551.629 94.3568C556.289 100.751 560.604 107.491 564.746 114.576C567.162 118.551 569.061 122.007 570.787 125.291C572.858 129.093 574.584 132.895 576.31 136.524C579.761 144.128 582.696 151.904 584.939 159.508C585.457 161.063 585.802 162.792 586.32 164.347C585.802 160.545 585.112 156.57 584.076 152.077C582.523 145.683 580.452 139.289 577.863 132.203C573.376 120.452 567.335 108.355 559.568 95.2209C556.462 89.8637 552.837 84.3336 548.867 78.6307C545.588 73.9647 542.136 69.2987 538.685 64.9783C531.263 55.6463 523.842 48.2153 515.902 41.9939C511.933 38.8833 507.445 35.9454 502.785 33.3532C498.298 30.9338 493.465 28.86 488.115 27.1319C479.14 24.194 469.13 22.6387 458.256 22.6387Z" fill="var(--fill-0, #4ABBB6)"/>
<path id="Vector_38" d="M105.478 119.415C104.96 119.588 104.615 119.934 104.27 120.279C103.925 120.798 103.925 121.316 104.097 121.835C104.615 124.254 105.133 126.501 105.478 128.747C105.996 131.167 106.341 133.586 106.686 136.005C106.686 135.833 106.686 135.833 106.686 135.66C107.377 141.017 107.895 146.201 107.895 151.559C107.895 154.151 107.722 156.916 107.722 159.508C107.549 162.273 107.204 165.038 106.859 167.803V167.458C106.514 169.877 106.169 172.124 105.651 174.543C105.133 176.963 104.615 179.382 103.925 181.801C102.544 186.64 100.991 191.479 99.0923 196.145C98.5745 197.182 98.2293 198.392 97.7116 199.428C97.539 199.601 97.7116 199.947 97.8841 200.12C98.0567 200.293 98.4019 200.12 98.5745 199.947C100.818 195.108 102.889 190.269 104.615 185.258C106.341 180.419 107.895 175.407 108.93 170.223C109.966 165.211 110.829 160.027 111.346 154.842C111.864 149.658 111.864 144.473 111.519 139.289C111.346 136.178 111.001 133.068 110.483 129.957C109.966 126.846 109.275 123.563 108.412 120.452C108.067 119.588 107.377 118.897 106.514 118.897C105.823 119.242 105.651 119.242 105.478 119.415Z" fill="var(--fill-0, #4ABBB6)"/>
<path id="Vector_39" d="M98.9191 132.376C98.2287 132.549 97.8836 133.24 98.0561 133.931C98.5739 136.005 98.9191 138.079 99.2643 140.153C99.9547 146.201 99.7821 152.423 98.9191 158.471C98.5739 160.545 98.2287 162.792 97.8836 164.865C97.8836 165.211 98.0562 165.557 98.4013 165.729C98.7465 165.902 99.0917 165.557 99.2643 165.211C100.3 160.027 101.163 154.842 101.508 149.485C101.681 146.72 101.853 144.128 101.681 141.363C101.681 139.98 101.508 138.77 101.335 137.388C101.163 136.005 100.99 134.623 100.645 133.24C100.472 132.722 99.9547 132.203 99.4369 132.203C99.0917 132.203 98.9191 132.376 98.9191 132.376ZM99.0917 139.807V139.98C99.0917 139.98 99.0917 139.98 99.0917 139.807Z" fill="var(--fill-0, #4ABBB6)"/>
<path id="Vector_40" d="M14.3493 157.089C13.8315 157.261 13.4863 157.607 13.1411 157.953C12.7959 158.471 12.7959 158.99 12.9685 159.508C13.1411 160.199 13.6589 160.718 14.3493 160.891C16.0752 161.409 17.6285 162.1 19.1818 162.791C21.5981 163.828 24.0144 165.038 26.2581 166.248C28.6744 167.457 30.9181 168.84 33.1618 170.223C35.4055 171.605 37.6492 172.988 39.8929 174.543C42.1366 176.098 44.3803 177.654 46.4514 179.382L46.2788 179.209C49.5581 181.628 52.6648 184.221 55.5988 186.986C58.7055 189.751 61.8122 192.516 64.9188 195.281C65.0914 195.454 65.4366 195.454 65.6092 195.281C65.7818 195.108 65.7818 194.762 65.6092 194.589C61.9847 191.133 58.3603 187.85 54.7359 184.566C51.1114 181.283 47.3144 177.999 43.5174 174.889C39.7203 171.778 35.7507 168.84 31.7811 166.075C27.6389 163.31 23.3241 160.891 19.0092 158.817C17.9737 158.298 16.9381 157.78 15.73 157.261C15.73 157.261 15.5574 157.261 15.3848 157.089C15.2122 157.089 15.0396 157.089 14.867 157.089C14.6944 157.089 14.5218 157.089 14.3493 157.089Z" fill="var(--fill-0, #4ABBB6)"/>
</g>
</svg>
